<?xml version="1.0" encoding="utf-8"?>
<!-- Generator: Adobe Illustrator 21.1.0, SVG Export Plug-In . SVG Version: 6.00 Build 0)  -->
<svg version="1.1" id="Layer_1" xmlns="http://www.w3.org/2000/svg" xmlns:xlink="http://www.w3.org/1999/xlink" x="0px" y="0px"
	 viewBox="0 0 600 113" style="enable-background:new 0 0 600 113;" xml:space="preserve">
<style type="text/css">
	.st0{font-family:'Adelle-Regular';}
	.st1{font-size:22.6362px;}
	.st2{font-family:'Adelle-Light';}
	.st3{font-size:16.9771px;}
	.st4{fill:#231F20;}
	.st5{fill:#EB5D0B;}
	.st6{fill:none;stroke:#F26722;stroke-width:2.1221;}
</style>
<text transform="matrix(1 0 0 1 345.9561 64.8442)"><tspan x="0" y="0" class="st0 st1">Computing Science and</tspan><tspan x="0" y="28.3" class="st0 st1">Information Systems</tspan></text>
<text transform="matrix(1 0 0 1 345.2363 29.519)" class="st2 st3">SCIENCE &amp; TECHNOLOGY</text>
<g>
	<g>
		<path class="st4" d="M10.3,81v9.7H8V81H5v-1.9h8.3V81H10.3z"/>
		<path class="st4" d="M22.8,90.7v-5h-4.9v5h-2.2V79.1h2.2v4.7h4.9v-4.7h2.2v11.6H22.8z"/>
		<path class="st4" d="M28.5,90.7V79.1h6.3v1.9h-4.1v2.9h3.9v1.8h-3.9v3.2h4.1v1.9H28.5z"/>
		<path class="st4" d="M47.2,90.8c-4.1,0-5.4-2.7-5.4-5.6c0-3.7,1.9-6.3,5.8-6.3c0.8,0,1.7,0.1,2.5,0.3l-0.2,2
			c-0.8-0.2-1.6-0.3-2.3-0.3c-2.2,0-3.2,1.6-3.2,3.9c0,2.5,1,3.9,3.4,3.9c0.7,0,1.7-0.2,2.3-0.5l0.3,2
			C49.4,90.6,48.3,90.8,47.2,90.8z"/>
		<path class="st4" d="M57.7,90.9c-3.5,0-5.3-2.3-5.3-5.9c0-3.8,2.6-6.1,5.7-6.1c3.1,0,5.3,1.9,5.3,5.8
			C63.4,88.6,60.8,90.9,57.7,90.9z M57.9,80.9c-1.6,0-3.1,1.3-3.1,3.9c0,2.5,1,4.1,3.1,4.1c1.5,0,3.1-1.2,3.1-4
			C61,82.3,59.9,80.9,57.9,80.9z"/>
		<path class="st4" d="M66.1,90.7V79.1h2.2v9.7h3.8v2H66.1z"/>
		<path class="st4" d="M74.4,90.7V79.1h2.2v9.7h3.8v2H74.4z"/>
		<path class="st4" d="M82.7,90.7V79.1h6.3v1.9H85v2.9h3.9v1.8H85v3.2h4.1v1.9H82.7z"/>
		<path class="st4" d="M101,81.5c-0.9-0.4-2-0.6-3.1-0.6c-2.3,0-3.9,1.4-3.9,4c0,2.5,1.3,3.9,3.7,3.9c0.6,0,1-0.1,1.5-0.2v-4h2.2
			v5.5c-1.2,0.5-2.6,0.7-4,0.7c-3.7,0-5.9-2.2-5.9-5.7c0-3.7,2.5-6.3,6.5-6.3c1.2,0,2.3,0.2,3.3,0.5L101,81.5z"/>
		<path class="st4" d="M104.7,90.7V79.1h6.3v1.9h-4.1v2.9h3.9v1.8h-3.9v3.2h4.1v1.9H104.7z"/>
		<path class="st4" d="M123.5,90.9c-3.6,0-5.3-2.3-5.3-5.9c0-3.8,2.6-6.1,5.7-6.1c3.1,0,5.3,1.9,5.3,5.8
			C129.1,88.6,126.6,90.9,123.5,90.9z M123.7,80.9c-1.6,0-3.1,1.3-3.1,3.9c0,2.5,1,4.1,3.1,4.1c1.5,0,3.1-1.2,3.1-4
			C126.8,82.3,125.7,80.9,123.7,80.9z"/>
		<path class="st4" d="M134.1,81v3h3.8v1.8h-3.8v4.9h-2.2V79.1h6.2V81H134.1z"/>
		<path class="st4" d="M152.6,90.7v-5h-4.9v5h-2.2V79.1h2.2v4.7h4.9v-4.7h2.2v11.6H152.6z"/>
		<path class="st4" d="M158.3,90.7V79.1h2.2v11.6H158.3z"/>
		<path class="st4" d="M172.7,81.5c-0.9-0.4-2-0.6-3.1-0.6c-2.3,0-3.9,1.4-3.9,4c0,2.5,1.3,3.9,3.7,3.9c0.6,0,1-0.1,1.5-0.2v-4h2.2
			v5.5c-1.2,0.5-2.6,0.7-4,0.7c-3.7,0-5.9-2.2-5.9-5.7c0-3.7,2.5-6.3,6.5-6.3c1.2,0,2.3,0.2,3.3,0.5L172.7,81.5z"/>
		<path class="st4" d="M183.6,90.7v-5h-4.9v5h-2.2V79.1h2.2v4.7h4.9v-4.7h2.2v11.6H183.6z"/>
		<path class="st4" d="M189.2,90.7V79.1h6.3v1.9h-4.1v2.9h3.9v1.8h-3.9v3.2h4.1v1.9H189.2z"/>
		<path class="st4" d="M204.2,90.7l-3.2-4.8h-0.1v4.8h-2.2V79.1c0.9-0.1,2-0.1,3.3-0.1c2.6,0,4.2,0.9,4.2,3.3c0,1.7-1.2,3-3,3.2
			c0.3,0.4,0.7,0.9,0.9,1.3l2.8,3.9H204.2z M201.8,80.8c-0.3,0-0.7,0-0.9,0.1v3.4c0.2,0,0.5,0,0.8,0c1.3,0,2.2-0.7,2.2-1.8
			C203.9,81.4,203.2,80.8,201.8,80.8z"/>
		<path class="st4" d="M214.1,90.7V79.1h2.2v9.7h3.8v2H214.1z"/>
		<path class="st4" d="M222.4,90.7V79.1h6.3v1.9h-4.1v2.9h3.9v1.8h-3.9v3.2h4.1v1.9H222.4z"/>
		<path class="st4" d="M238.9,90.7l-0.8-2.4h-4.4l-0.8,2.4h-2.3l4.1-11.6h2.5l4.2,11.6H238.9z M236.5,83.5c-0.2-0.6-0.4-1.2-0.5-1.9
			h0c-0.1,0.6-0.3,1.3-0.6,1.9l-1,3h3.2L236.5,83.5z"/>
		<path class="st4" d="M249.2,90.7l-3.2-4.8h-0.1v4.8h-2.2V79.1c0.9-0.1,2-0.1,3.3-0.1c2.6,0,4.2,0.9,4.2,3.3c0,1.7-1.2,3-3,3.2
			c0.3,0.4,0.7,0.9,0.9,1.3l2.8,3.9H249.2z M246.7,80.8c-0.3,0-0.7,0-0.9,0.1v3.4c0.2,0,0.5,0,0.8,0c1.3,0,2.2-0.7,2.2-1.8
			C248.8,81.4,248.1,80.8,246.7,80.8z"/>
		<path class="st4" d="M261,90.7l-3.4-5.9c-0.5-0.9-0.9-1.7-1.3-2.5c0.1,1,0.1,2.8,0.1,4.2v4.2h-2.2V79.1h2.9l3.2,5.5
			c0.5,0.9,1,1.9,1.4,2.7c-0.1-1.2-0.1-3.2-0.1-4.7v-3.6h2.2v11.6H261z"/>
		<path class="st4" d="M267.3,90.7V79.1h2.2v11.6H267.3z"/>
		<path class="st4" d="M279.6,90.7l-3.4-5.9c-0.5-0.9-0.9-1.7-1.3-2.5c0.1,1,0.1,2.8,0.1,4.2v4.2h-2.2V79.1h2.9l3.2,5.5
			c0.5,0.9,1,1.9,1.4,2.7c-0.1-1.2-0.1-3.2-0.1-4.7v-3.6h2.2v11.6H279.6z"/>
		<path class="st4" d="M294.8,81.5c-0.9-0.4-2-0.6-3.1-0.6c-2.3,0-3.9,1.4-3.9,4c0,2.5,1.3,3.9,3.7,3.9c0.6,0,1-0.1,1.5-0.2v-4h2.2
			v5.5c-1.2,0.5-2.6,0.7-4,0.7c-3.7,0-5.9-2.2-5.9-5.7c0-3.7,2.5-6.3,6.5-6.3c1.2,0,2.3,0.2,3.3,0.5L294.8,81.5z"/>
		<path class="st4" d="M298.7,90.9c-0.8,0-1.3-0.4-1.3-1.2c0-0.8,0.4-1.2,1.3-1.2c0.8,0,1.3,0.4,1.3,1.2
			C300,90.5,299.5,90.9,298.7,90.9z"/>
	</g>
	<g>
		<path class="st5" d="M5,54.2v-4.2l4-0.5c0.9-0.1,1-0.3,1-1.3V16.3c0-1-0.1-1.2-1-1.3l-4-0.5v-4.2h18.7v4.2L18.5,15
			c-1,0.1-1,0.3-1,1.2v32.4h14.2c0.7,0,0.9-0.1,1-0.7l1-6.2H39v12.4H5z"/>
		<path class="st5" d="M64.7,54.2l-0.6-3.8l-0.2-0.1c-2.8,2.7-6.2,4.7-11.2,4.7c-8,0-9.1-5.6-9.1-9.2c0-6.5,3.9-9.6,11.7-10.3
			l8.1-0.7v-3.3c0-4.1-0.7-6.3-5.6-6.3c-3.5,0-5.8,0.3-5.8,4.7l-6.9-0.7c0-8.3,7.4-9.4,12.8-9.4c9.2,0,12.6,2.7,12.6,11.6v16.7
			c0,1,0.1,1.2,1,1.3l3.1,0.5v4.2H64.7z M63.4,39.6l-6,0.5c-4.8,0.5-6.2,1.8-6.2,4.9c0,3.1,1.5,4.2,4.1,4.2c3.1,0,6.3-1.9,8.2-3.9
			V39.6z"/>
		<path class="st5" d="M99.6,54.2v-4.1l3.2-0.4c0.9-0.1,1-0.5,1-1.3V33.4c0-3.9-0.4-7.1-4.5-7.1c-3.2,0-6.6,1.8-8.7,3.4v18.7
			c0,1,0.1,1.2,1,1.3l3.4,0.5v4.2H79.3V50l3-0.4c0.9-0.1,1-0.3,1-1.3V27.4c0-0.7-0.2-1.2-0.8-1.4L79,24.8l0.6-4.2H89l0.5,3.6
			l0.3,0.1c3.6-2.5,7.3-4.3,11.9-4.3c6.9,0,9.5,4.4,9.5,11.9v16.4c0,1,0.1,1.2,1,1.3l3.5,0.5v4.2H99.6z"/>
		<path class="st5" d="M145.4,25.8c1.3,1.7,2.4,3.7,2.4,6.7c0,7.5-5.8,11.7-13.3,11.7c-2.1,0-4.1-0.2-5.3-0.6l-2.9,4.9l7.8,0.4
			c11.3,0.6,16.7,1.2,16.7,9c0,6.9-5.8,10.9-16.9,10.9c-11.2,0-15.2-3.1-15.2-8c0-3.1,1.7-5,3.9-7.1c-2.1-0.9-2.9-2.5-2.9-4
			c0-1.4,0.5-2.5,1.6-3.7c1-1.2,2.3-2.8,3.5-4c-2.9-1.6-5-5-5-9.6c0-7.2,5-12.5,14-12.5c2.3,0,4.6,0.3,6,0.6h11.6v4.7L145.4,25.8z
			 M127.6,55.2c-1.1,1.2-2.4,2.9-2.4,4.6c0,3,3.4,4,8.9,4c3.2,0,9.4-0.5,9.4-4.7c0-2.9-2.4-3-6.1-3.2L127.6,55.2z M134.3,25.3
			c-4.3,0-7.4,2.2-7.4,7.1c0,3.7,2,6.5,7.2,6.5c4.4,0,7.3-2.6,7.3-6.6C141.4,27.7,138.7,25.3,134.3,25.3z"/>
		<path class="st5" d="M175.7,54.2l-0.6-3.8l-0.2-0.1c-2.8,2.7-6.2,4.7-11.2,4.7c-8,0-9.1-5.6-9.1-9.2c0-6.5,3.9-9.6,11.7-10.3
			l8.1-0.7v-3.3c0-4.1-0.7-6.3-5.6-6.3c-3.5,0-5.8,0.3-5.8,4.7l-6.9-0.7c0-8.3,7.4-9.4,12.8-9.4c9.2,0,12.6,2.7,12.6,11.6v16.7
			c0,1,0.1,1.2,1,1.3l3.1,0.5v4.2H175.7z M174.3,39.6l-6,0.5c-4.8,0.5-6.2,1.8-6.2,4.9c0,3.1,1.5,4.2,4.1,4.2c3.1,0,6.3-1.9,8.2-3.9
			V39.6z"/>
		<path class="st5" d="M190,54.2V50l3-0.4c0.9-0.1,1-0.3,1-1.3V27.4c0-0.7-0.2-1.1-0.8-1.4l-3.5-1.2l0.6-4.2h9.5l0.7,4.7l0.2,0.1
			c2.1-2.8,5.1-5.5,9.3-5.5c1.5,0,3.8,0.3,5,0.6v10.7l-5.7-0.3l-0.8-4c-0.1-0.6-0.2-0.7-0.8-0.7c-2.4,0-5.1,2.1-6.4,3.4v18.7
			c0,1,0.1,1.2,1.1,1.3l6,0.5v4.2H190z"/>
		<path class="st5" d="M239.7,54.2l-0.6-3.8l-0.2-0.1c-2.8,2.7-6.2,4.7-11.2,4.7c-8,0-9.1-5.6-9.1-9.2c0-6.5,3.9-9.6,11.7-10.3
			l8.1-0.7v-3.3c0-4.1-0.7-6.3-5.6-6.3c-3.5,0-5.8,0.3-5.8,4.7l-6.9-0.7c0-8.3,7.4-9.4,12.8-9.4c9.2,0,12.6,2.7,12.6,11.6v16.7
			c0,1,0.1,1.2,1,1.3l3.1,0.5v4.2H239.7z M238.3,39.6l-6,0.5c-4.8,0.5-6.2,1.8-6.2,4.9c0,3.1,1.5,4.2,4.1,4.2c3.1,0,6.3-1.9,8.2-3.9
			V39.6z"/>
		<path class="st5" d="M259.1,55c-2.6,0-3.9-1.2-3.9-3.7c0-2.4,1.3-3.7,3.9-3.7c2.5,0,3.9,1.3,3.9,3.7C263,53.7,261.6,55,259.1,55z"
			/>
	</g>
</g>
<line class="st6" x1="320.5" y1="11.7" x2="320.5" y2="96.6"/>
</svg>
